<?xml version="1.0" encoding="utf-8"?>
<!-- Generator: Adobe Illustrator 19.2.1, SVG Export Plug-In . SVG Version: 6.00 Build 0)  -->
<svg version="1.1" id="Layer_1" xmlns="http://www.w3.org/2000/svg" xmlns:xlink="http://www.w3.org/1999/xlink" x="0px" y="0px"
	 viewBox="0 0 50 50" style="enable-background:new 0 0 50 50;" xml:space="preserve">
<style type="text/css">
	.st0{fill:#FFFFFF;}
</style>
<g>
	<g>
		<path class="st0" d="M24,16c-2,0-3,1.5-3,3c0,2,0.8,4,1,6c0.4,3.4,0.4,5,2,5s1.6-1.6,2-5c0.2-2,1-4,1-6C27,17.5,26,16,24,16z"/>
		<ellipse class="st0" cx="24" cy="12.5" rx="2" ry="2.5"/>
	</g>
	<g>
		<path class="st0" d="M20,19c0-0.4,0.1-0.9,0.2-1.3c-0.4-0.4-1-0.7-1.7-0.7c-1.6,0-2.5,1.3-2.5,2.6c0,1.7,0.7,3.5,0.8,5.1
			c0.3,2.9,0.3,4.3,1.7,4.3s1.4-1.4,1.7-4.3c0.1-0.7,0.2-1.4,0.4-2.1C20.3,21.5,20,20.3,20,19z"/>
		<ellipse class="st0" cx="18.5" cy="14" rx="1.5" ry="2"/>
	</g>
	<g>
		<path class="st0" d="M28,19c0-0.4-0.1-0.9-0.2-1.3c0.4-0.4,1-0.7,1.7-0.7c1.6,0,2.5,1.3,2.5,2.6c0,1.7-0.7,3.5-0.8,5.1
			c-0.3,2.9-0.3,4.3-1.7,4.3s-1.4-1.4-1.7-4.3c-0.1-0.7-0.2-1.4-0.4-2.1C27.7,21.5,28,20.3,28,19z"/>
		<ellipse class="st0" cx="29.5" cy="14" rx="1.5" ry="2"/>
	</g>
	<path class="st0" d="M16,23c-4.2,1.2-8,5-8,8.5c0,4,3.8,6.5,9,6.5c13.8,0,25-8.8,25-16c0-4.4-5.7-5-10-5c0,0,8,0.1,8,4.5
		c0,5.7-11.2,13-21,13c-4.9,0-7-2-7-4.5S13.2,25.1,16,23z"/>
</g>
</svg>
